<svg xmlns="http://www.w3.org/2000/svg" width="512" height="512" viewBox="0 0 612 612"><path d="M535.5 229.5h-153v-153C382.5 34.253 348.247 0 306 0s-76.5 34.253-76.5 76.5v153h-153C34.253 229.5 0 263.753 0 306s34.253 76.5 76.5 76.5h153v153c0 42.247 34.253 76.5 76.5 76.5s76.5-34.253 76.5-76.5v-153h153c42.247 0 76.5-34.253 76.5-76.5s-34.253-76.5-76.5-76.5zm0 114.75H344.25V535.5c0 21.133-17.117 38.25-38.25 38.25s-38.25-17.117-38.25-38.25V344.25H76.5c-21.133 0-38.25-17.117-38.25-38.25s17.117-38.25 38.25-38.25h191.25V76.5c0-21.133 17.117-38.25 38.25-38.25s38.25 17.136 38.25 38.25v191.25H535.5c21.133 0 38.25 17.117 38.25 38.25s-17.117 38.25-38.25 38.25z" fill="#00388a"/></svg>