<svg xmlns="http://www.w3.org/2000/svg" xmlns:xlink="http://www.w3.org/1999/xlink" width="496" height="335" viewBox="0 0 496 335"><path fill="#FFF" d="M-1 1h496v335H-1z"/><image overflow="visible" width="522" height="348" xlink:href="508BF058.jpg" transform="translate(523 -428)"/><path d="M20 27h7v264h-7zM30 27h7v264h-7zM40 27h4v264h-4zM135 27h21v264h-21zM50 27h21v264H50zM172 27h21v264h-21zM260 27h21v264h-21zM357 27h21v264h-21zM440 27h11v264h-11zM213 27h15v264h-15zM87 27h7v264h-7zM105 27h7v264h-7zM115 27h7v264h-7zM231 27h7v264h-7zM240 27h7v264h-7zM296 27h7v264h-7zM316 27h7v264h-7zM325 27h7v264h-7zM335 27h7v264h-7zM392 27h7v264h-7zM411 27h7v264h-7zM461 27h4v264h-4zM424 27h4v264h-4zM432 27h4v264h-4zM472 27h4v264h-4zM345 27h4v264h-4zM249 27h4v264h-4zM205 27h4v264h-4zM197 27h4v264h-4zM158 27h4v264h-4z"/><path d="M85 27h6v264h-6zM108.191 237.743c5.167-1.077 11.95-1.723 19.054-1.723 7.644 0 13.134.969 17.978 3.768 4.844 2.476 8.396 7.213 8.396 13.349 0 9.15-6.674 14.964-14.64 17.225v.322c6.997 2.153 11.411 7.858 11.411 15.825 0 7.858-4.198 13.456-9.904 17.224-6.136 4.198-15.286 5.921-27.343 5.921-8.182 0-14.748-.538-18.301-1.292l13.349-70.619zm3.875 59.53c1.83.216 3.66.216 5.921.216 8.397 0 16.04-3.338 16.04-11.411 0-7.213-6.028-9.366-13.241-9.366h-4.844l-3.876 20.561zm6.245-31.864h5.167c8.504 0 14.317-3.66 14.317-9.904 0-5.167-4.198-7.428-10.119-7.428-2.691 0-4.952.216-6.136.431l-3.229 16.901z"/><g fill="#FFF"><path d="M110.132 244.987c9.519-1.859 22.444-3.536 31.341 1.296 4.101 2.228 5.347 5.778 4.074 10.207-1.034 3.597-5.28 5.626-8.509 6.627-3.188.988-5.561 3.759-5.561 7.19v.322c0 3.54 2.299 6.17 5.521 7.289 4.84 1.681 6.579 6.192 5.674 11.057-.868 4.666-5.049 8.438-9.293 10.209-5.792 2.415-12.206 2.814-18.396 2.954-5.971.135-12.275.134-18.161-1.013l5.254 9.216 13.349-70.618c1.788-9.458-12.674-13.463-14.47-3.961L87.606 306.38c-.713 3.772 1.015 8.39 5.254 9.216 9.354 1.822 19.251 1.94 28.723 1.224 8.857-.671 17.744-2.721 24.895-8.224 16.236-12.497 14.868-38.066-5.52-45.148l5.521 7.289v-.322l-5.561 7.19c7.278-2.257 13.511-6.351 17.367-13.055 4.278-7.438 3.632-17.48-1.376-24.351-10.938-15.002-34.766-12.807-50.662-9.701-9.5 1.856-5.554 16.333 3.885 14.489z"/><path d="M112.012 304.775c13.267 1.2 30.243-3.385 29.462-19.799-.662-13.919-14.489-15.767-25.478-15.767-3.157 0-6.671 2.239-7.289 5.521l-3.875 20.562c-1.783 9.458 12.679 13.464 14.47 3.961l3.875-20.562-7.289 5.521h4.844c1.663 0 3.108.137 4.712.559.32.084 1.152.775.858.049 2.588 6.417-11.521 5.191-14.182 4.95-9.655-.872-9.658 14.141-.108 15.005z"/><path d="M118.256 272.911c10.729 0 22.388-1.227 26.427-12.911 2.069-5.984-.579-13.396-5.978-16.642-5.731-3.446-12.74-3.094-19.106-2.095-2.383.374-4.848 2.927-5.294 5.264l-3.229 16.901c-.768 4.016 1.087 8.07 5.254 9.216 3.707 1.018 8.449-1.241 9.215-5.255l3.229-16.901-5.294 5.264c-.804.082-.634.069.508-.038 1.208-.109 2.422-.119 3.633-.135.911-.012 2.573.201 2.879.346-.352-.454-.226-.356.378.292-.213-.206-.568-.423-.585-.766 0 .013-.335.896-.189.729-1.966 2.232-7.983 1.727-11.739 1.727-9.687 0-9.772 15.004-.109 15.004z"/></g><path d="M212.606 276.928c0 19.27-13.241 33.372-31.434 33.372-13.349 0-22.284-8.72-22.284-21.854 0-18.193 12.703-33.264 31.434-33.264 14.103.001 22.284 9.689 22.284 21.746zm-37.677 11.303c0 6.136 3.014 10.227 8.504 10.227 8.289 0 13.133-12.487 13.133-21.423 0-4.844-2.153-10.012-8.289-10.012-8.935 0-13.348 13.027-13.348 21.208z"/><g fill="#FFF"><path d="M205.104 276.874c-.192 11.159-5.704 21.487-16.821 24.934-9.775 3.03-21.046-.645-21.861-11.965-.767-10.656 5.097-21.902 15.38-25.703 10.704-3.956 22.996.146 23.302 12.734.235 9.667 15.238 9.775 15.003.107-.227-9.324-3.821-17.821-11.344-23.531-7.785-5.909-17.805-6.572-27.111-4.829-18.687 3.501-29.952 21.798-30.266 39.771-.153 8.729 3.553 17.684 10.526 23.065 7.772 5.999 17.029 6.988 26.501 5.672 19.603-2.724 31.374-21.603 31.693-40.148.168-9.692-14.835-9.761-15.002-.107z"/><path d="M167.427 288.178c.228 5.902 2.012 11.566 7.05 15.076 4.62 3.219 10.793 3.461 15.818 1.072 9.736-4.629 13.542-17.266 13.772-27.237.284-12.283-11.122-21.164-22.727-15.959-9.813 4.4-13.695 17.136-13.913 27.048-.213 9.693 14.791 9.758 15.003.107.095-4.305 1.229-8.365 3.521-12.02.457-.729 1.398-1.688 2.272-1.74.383-.023.611-.438.803 1.335.485 4.498-1.056 9.283-3.345 13.084-1.749 2.903-3.134 2.36-3.251-.659-.372-9.651-15.376-9.772-15.003-.107z"/></g><path d="M217.231 309.115l14.641-76.432h15.501l-14.64 76.432h-15.502z"/><path fill="#FFF" d="M224.466 311.096l14.641-76.432-7.289 5.521h15.502l-7.181-9.482-14.64 76.432 7.289-5.521h-15.502c-9.687 0-9.772 15.004-.108 15.004h15.502c3.164 0 6.661-2.24 7.289-5.521l14.641-76.432c.896-4.679-2.05-9.482-7.182-9.482h-15.501c-3.164 0-6.661 2.24-7.289 5.521l-14.641 76.432c-1.812 9.455 12.649 13.459 14.469 3.96z"/><g><path d="M289.787 306.101c-6.135 3.122-13.779 4.199-19.699 4.199-14.965 0-22.715-8.505-22.715-22.284 0-16.04 11.627-32.726 30.68-32.726 10.658 0 18.301 6.028 18.301 15.824 0 13.349-13.025 18.193-34.232 17.655.107 1.507.646 3.875 1.723 5.382 2.045 2.691 5.598 4.091 10.119 4.091 5.705 0 10.549-1.291 14.748-3.337l1.075 11.196zm-13.672-39.508c-7.213 0-11.41 6.029-12.486 10.873 12.164.107 18.193-1.507 18.193-6.459 0-2.584-2.154-4.414-5.707-4.414z"/><g fill="#FFF"><path d="M285.989 299.631c-7.897 3.752-25.589 6.732-29.833-3.998-4.085-10.329 1.006-23.459 9.998-29.427 6.896-4.578 25.073-5.838 22.537 6.864-.612 3.063-3.067 4.832-6.437 6.039-6.374 2.283-13.402 2.284-20.08 2.158-5.379-.102-7.902 4.757-7.298 9.443 2.401 18.62 25.031 16.481 37.632 10.664-3.767-2.175-7.533-4.35-11.3-6.523l1.076 11.195c.391 4.065 3.05 7.526 7.448 7.556 3.766.024 7.947-3.374 7.556-7.448l-1.076-11.195c-.574-5.968-5.83-9.048-11.3-6.523-2.9 1.339-6.032 2.048-9.21 2.267-3.95.271-5.825.1-6.338-3.874l-7.298 9.443c17.244.325 38.843-2.54 41.681-23.065 1.304-9.437-4.479-18.666-12.837-22.653-9.565-4.563-20.809-3.044-30.078 1.418-16.728 8.054-25.54 31.428-18.758 48.574 8.134 20.565 34.417 20.146 51.51 12.025 8.729-4.148 1.088-17.065-7.595-12.94z"/><path d="M276.169 259.091c-9.721.407-17.41 6.994-19.775 16.395-1.176 4.676 2.258 9.464 7.182 9.482 7.17.027 17.725.305 22.748-5.945 2.663-3.313 3.612-7.247 2.491-11.408-1.538-5.705-7.241-8.24-12.646-8.524-9.688-.51-9.724 14.498-.107 15.004.074.004-2.72-3.354-1.271-1.383-.483-.658-.175-3.168-.411-2.207.077-.314 1.606-2.297.631-1.309 1.592-1.613-1.386.314.335-.307-3.53 1.275-7.475 1.091-11.663 1.074l7.182 9.482c.646-2.572 2.062-5.221 5.197-5.352 9.646-.403 9.77-15.406.107-15.002z"/></g></g><g><path d="M329.398 242.156l-2.691 14.21h11.303l-2.367 11.842h-11.195l-3.553 17.87c-.432 2.045-.861 4.844-.861 6.674 0 2.584 1.076 4.414 4.521 4.414 1.291 0 2.906 0 4.197-.215l-1.721 12.164c-2.047.754-5.922 1.185-9.15 1.185-9.367 0-13.779-4.737-13.779-11.411 0-2.799.322-5.706 1.184-9.797l3.982-20.884h-6.674l2.152-11.842h6.783l1.938-9.903 15.931-4.307z"/><path fill="#FFF" d="M322.163 240.176c-.896 4.737-1.794 9.474-2.691 14.21-.886 4.679 2.042 9.482 7.182 9.482h11.303l-7.182-9.482-2.367 11.842 7.289-5.521h-11.195c-3.182 0-6.637 2.241-7.289 5.521-1.146 5.767-2.293 11.532-3.438 17.299-.867 4.36-1.731 8.773-.691 13.172 1.685 7.12 9.5 8.427 15.616 7.755l-7.182-9.482c-.573 4.055-1.146 8.109-1.721 12.164l5.294-5.264c-3.094.929-10.815 2.479-13.027-.855-1.649-2.484.079-7.957.629-10.841l3.812-19.986c.892-4.679-2.046-9.482-7.182-9.482h-6.674l7.182 9.482 2.152-11.842-7.289 5.521h6.783c3.174 0 6.646-2.241 7.289-5.521.646-3.302 1.291-6.603 1.938-9.903l-5.294 5.264 15.932-4.307c9.337-2.523 5.456-17.013-3.883-14.488l-15.932 4.307c-2.404.649-4.797 2.723-5.294 5.264-.646 3.302-1.291 6.603-1.938 9.903l7.289-5.521h-6.783c-3.14 0-6.692 2.238-7.289 5.521l-2.152 11.842c-.851 4.68 2.016 9.482 7.182 9.482h6.674l-7.182-9.482c-1.622 8.506-3.533 17.011-4.81 25.576-1.146 7.692-.8 16 5.781 21.268 7.046 5.639 17.629 5.792 25.969 3.288 2.298-.689 4.93-2.689 5.294-5.264.573-4.055 1.146-8.109 1.721-12.164.6-4.242-1.855-10.067-7.182-9.482-.936.136-1.876.205-2.822.207-2.66-.321-2.143.729 1.552 3.149-.105-1.599.299-3.259.607-4.814l1.022-5.143 2.518-12.66-7.289 5.521h11.195c3.185 0 6.633-2.242 7.289-5.521l2.367-11.842c.935-4.677-2.078-9.482-7.182-9.482h-11.303l7.182 9.482c.896-4.737 1.794-9.474 2.691-14.21 1.791-9.459-12.671-13.465-14.471-3.963z"/></g><g><path d="M392.158 276.928c0 19.27-13.242 33.372-31.434 33.372-13.35 0-22.285-8.72-22.285-21.854 0-18.193 12.703-33.264 31.434-33.264 14.104.001 22.285 9.689 22.285 21.746zm-37.678 11.303c0 6.136 3.014 10.227 8.504 10.227 8.289 0 13.133-12.487 13.133-21.423 0-4.844-2.152-10.012-8.289-10.012-8.933 0-13.348 13.027-13.348 21.208z"/><g fill="#FFF"><path d="M384.656 276.874c-.191 11.159-5.704 21.487-16.821 24.934-9.774 3.03-21.047-.645-21.862-11.965-.767-10.656 5.098-21.902 15.38-25.703 10.704-3.956 22.998.146 23.303 12.734.235 9.667 15.239 9.775 15.004.107-.228-9.324-3.822-17.822-11.345-23.531-7.785-5.909-17.806-6.572-27.112-4.829-18.687 3.501-29.951 21.798-30.266 39.771-.152 8.729 3.554 17.685 10.527 23.065 7.772 5.998 17.029 6.988 26.502 5.672 19.602-2.725 31.374-21.603 31.693-40.148.168-9.692-14.837-9.761-15.003-.107z"/><path d="M346.979 288.178c.229 5.902 2.013 11.565 7.051 15.076 4.619 3.219 10.792 3.461 15.817 1.072 9.736-4.629 13.542-17.266 13.772-27.237.283-12.282-11.122-21.165-22.728-15.959-9.812 4.401-13.695 17.137-13.912 27.048-.213 9.693 14.792 9.758 15.004.107.095-4.305 1.229-8.365 3.521-12.02.456-.728 1.397-1.688 2.271-1.74.383-.023.611-.438.802 1.335.485 4.498-1.055 9.283-3.344 13.084-1.749 2.903-3.134 2.36-3.25-.659-.374-9.651-15.378-9.772-15.004-.107z"/></g></g><g><path d="M108.691 237.461c5.167-1.077 11.95-1.723 19.054-1.723 7.644 0 13.134.969 17.978 3.768 4.844 2.476 8.396 7.213 8.396 13.349 0 9.15-6.674 14.964-14.64 17.225v.322c6.997 2.153 11.411 7.858 11.411 15.825 0 7.858-4.198 13.456-9.904 17.224-6.136 4.198-15.286 5.921-27.343 5.921-8.182 0-14.748-.538-18.301-1.292l13.349-70.619zm3.875 59.53c1.83.216 3.66.216 5.921.216 8.397 0 16.04-3.338 16.04-11.411 0-7.213-6.028-9.366-13.241-9.366h-4.844l-3.876 20.561zm6.245-31.864h5.167c8.504 0 14.317-3.66 14.317-9.904 0-5.167-4.198-7.428-10.119-7.428-2.691 0-4.952.216-6.136.431l-3.229 16.901zM213.106 276.646c0 19.27-13.241 33.372-31.434 33.372-13.349 0-22.284-8.72-22.284-21.854 0-18.193 12.703-33.264 31.434-33.264 14.103 0 22.284 9.689 22.284 21.746zm-37.677 11.303c0 6.136 3.014 10.227 8.504 10.227 8.289 0 13.133-12.487 13.133-21.423 0-4.844-2.153-10.012-8.289-10.012-8.935 0-13.348 13.027-13.348 21.208zM217.731 308.833l14.641-76.432h15.503l-14.642 76.432h-15.502zM290.287 305.818c-6.135 3.122-13.779 4.199-19.699 4.199-14.965 0-22.715-8.505-22.715-22.284 0-16.04 11.627-32.726 30.68-32.726 10.658 0 18.301 6.028 18.301 15.824 0 13.349-13.025 18.193-34.232 17.655.107 1.507.646 3.875 1.723 5.382 2.045 2.691 5.598 4.091 10.119 4.091 5.705 0 10.549-1.291 14.748-3.337l1.075 11.196zm-13.672-39.507c-7.213 0-11.41 6.029-12.486 10.873 12.164.107 18.193-1.507 18.193-6.459 0-2.584-2.154-4.414-5.707-4.414zM329.898 241.874l-2.691 14.21h11.303l-2.367 11.842h-11.195l-3.553 17.87c-.432 2.045-.861 4.844-.861 6.674 0 2.584 1.076 4.414 4.521 4.414 1.291 0 2.906 0 4.197-.215l-1.721 12.164c-2.047.754-5.922 1.185-9.15 1.185-9.367 0-13.779-4.737-13.779-11.411 0-2.799.322-5.706 1.184-9.797l3.982-20.884h-6.674l2.152-11.842h6.783l1.938-9.903 15.931-4.307zM392.658 276.646c0 19.27-13.242 33.372-31.434 33.372-13.35 0-22.285-8.72-22.285-21.854 0-18.193 12.703-33.264 31.434-33.264 14.104 0 22.285 9.689 22.285 21.746zm-37.678 11.303c0 6.136 3.014 10.227 8.504 10.227 8.289 0 13.133-12.487 13.133-21.423 0-4.844-2.152-10.012-8.289-10.012-8.933 0-13.348 13.027-13.348 21.208z"/></g></svg>