<svg xmlns="http://www.w3.org/2000/svg" viewBox="0 0 60 60" width="512" height="512"><g fill="#FFF"><path d="M54.072 2.535l-34.142-.07c-3.27 0-5.93 2.66-5.93 5.93v3.124l26.065-.054c4.377 0 7.935 3.557 7.935 7.929v21.142c0 .634-.083 1.248-.224 1.84l3.484 3.833a.998.998 0 0 0 1.1.26 1 1 0 0 0 .64-.933v-10h1.07c3.27 0 5.93-2.66 5.93-5.93V8.465c0-3.27-2.66-5.93-5.928-5.93z"/><path d="M40.069 13.465l-34.139.07c-3.27 0-5.93 2.66-5.93 5.93v21.141c0 3.27 2.66 5.93 5.929 5.93H12v10a1 1 0 0 0 1.74.673l9.704-10.675 16.626-.068c3.27 0 5.93-2.66 5.93-5.93V19.394c0-3.27-2.66-5.929-5.931-5.929zM12 34.449c-2.206 0-4-1.794-4-4s1.794-4 4-4 4 1.794 4 4-1.794 4-4 4zm11 0c-2.206 0-4-1.794-4-4s1.794-4 4-4 4 1.794 4 4-1.794 4-4 4zm11 0c-2.206 0-4-1.794-4-4s1.794-4 4-4 4 1.794 4 4-1.794 4-4 4z"/></g></svg>