<svg xmlns="http://www.w3.org/2000/svg" width="512" height="512" viewBox="0 0 612 612"><path d="M345.538 612H219.343c-8.038 0-10.416-6.523-10.416-14.57V340h-47.828c-8.038 0-10.416-6.523-10.416-14.57V218.571c0-8.047 2.378-14.571 10.416-14.571h57.691c-.058-85.075 14.979-141.883 45.819-173.383C290.944 3.708 322.833 0 353.362 0h89.25c8.037 0 18.705 6.523 18.705 14.571v116.576c0 8.047-10.668 14.57-18.705 14.57h-78.367V204h78.367c8.037 0 18.705 6.523 18.705 14.571V325.43c0 8.047-10.668 14.57-18.705 14.57h-78.367v257.43c-.01 8.047-10.668 14.57-18.707 14.57zM238.04 582.858h97.073V325.43c0-8.048 2.379-14.571 10.416-14.571h86.658v-77.717h-86.658c-8.037 0-10.416-6.523-10.416-14.571v-87.424c0-8.047 2.379-14.571 10.416-14.571h86.658V29.142h-78.834c-22.521 0-48.197 1.689-67.951 21.871-26.481 27.035-39.053 83.309-37.354 167.267a14.557 14.557 0 0 1-4.164 10.494 14.534 14.534 0 0 1-10.396 4.368h-53.691v77.717h39.538c8.038 0 18.706 6.523 18.706 14.571v257.428h-.001z" fill="#FFF"/></svg>