<svg xmlns="http://www.w3.org/2000/svg" viewBox="0 0 492.592 492.592" width="512" height="512"><g fill="#edae49"><path d="M424.49 176.622l24.256-29.255-31.295-25.938-24.695 29.783c-22.817-15.704-47.463-27.645-73.173-35.571l4.788-42.293-40.383-4.568-4.292 37.912a243.172 243.172 0 0 0-33.4-2.325c-10.388 0-20.712.748-30.937 2.048L211.1 68.763l-40.383 4.568 4.698 41.521c-25.995 7.738-50.917 19.582-74.003 35.237l-23.776-28.686-31.295 25.938 23.166 27.946c-21.094 19.094-40.074 41.61-56.087 67.28L0 264.102l13.42 21.516c53.99 86.545 141.047 138.21 232.876 138.21s178.886-51.673 232.876-138.218l13.42-21.516-13.42-21.508c-15.656-25.094-34.157-47.147-54.682-65.964zM246.296 383.185c-81.229 0-153.305-46.812-198.394-119.092C92.991 191.822 165.067 145.01 246.296 145.01s153.305 46.812 198.394 119.092c-45.089 72.279-117.165 119.083-198.394 119.083z"/><path d="M327.825 240.13c1.886 6.999 2.983 14.323 2.983 21.906 0 46.601-37.912 84.513-84.513 84.513s-84.513-37.912-84.513-84.513 37.912-84.513 84.513-84.513c4.967 0 9.803.512 14.534 1.341a45.467 45.467 0 0 1 17.379-12.355c-10.039-3.357-20.744-5.243-31.913-5.243-55.656 0-100.77 45.114-100.77 100.77 0 55.648 45.114 100.77 100.77 100.77s100.77-45.114 100.77-100.77c0-14.363-3.048-27.995-8.462-40.358a45.385 45.385 0 0 1-10.778 18.452z"/><path d="M249.629 208.681c0-4.446.667-8.722 1.853-12.786-1.715-.13-3.438-.26-5.186-.26-36.668 0-66.402 29.726-66.402 66.402 0 36.668 29.726 66.402 66.402 66.402s66.402-29.726 66.402-66.402c0-3.788-.39-7.478-1-11.095-5.154 2.032-10.754 3.186-16.631 3.186-25.093 0-45.438-20.346-45.438-45.447z"/></g></svg>