<svg xmlns="http://www.w3.org/2000/svg" viewBox="0 0 511.992 511.992" width="512" height="512"><path d="M389.508 112.003c2.125-2.297 3.953-4.719 5.484-7.281 5.453-9.094 9.562-24.422-1.844-45.75-15.234-28.531-33.5-42.984-54.281-42.984-23.938 0-48.781 19.547-73.875 58.125A357.312 357.312 0 0 0 256 88.754a349.043 349.043 0 0 0-9-14.641c-25.086-38.578-49.938-58.125-73.859-58.125-20.781 0-39.055 14.453-54.297 42.984-11.398 21.328-7.289 36.656-1.836 45.75 1.531 2.562 3.359 4.984 5.484 7.281H0v149.328h32v234.672h447.992V261.331h32V112.003H389.508zM202.664 474.659H53.336V261.331h149.328v213.328zm0-234.656H21.336V133.331h181.328v106.672zm-37.554-128c-15.18-4.813-25.501-11.063-29.805-18.25-1.422-2.375-5.742-9.578 2.359-24.734 11.242-21.031 23.18-31.703 35.477-31.703 15.742 0 35.57 17.125 55.828 48.203 5.734 8.797 10.812 17.641 15.008 25.484-.164.344-.328.672-.492 1H165.11zm122.882 362.656H224V133.331h63.992v341.328zm-19.468-362.656a19.414 19.414 0 0 1-.5-1c4.187-7.843 9.265-16.687 14.999-25.484 20.266-31.078 40.094-48.203 55.844-48.203 12.281 0 24.219 10.672 35.469 31.703 8.094 15.156 3.781 22.375 2.359 24.734-4.297 7.188-14.625 13.438-29.797 18.25h-78.374zm190.14 362.656H309.336V261.331h149.328v213.328zm32-234.656H309.336V133.331h181.328v106.672z" fill="#FFF"/></svg>