<svg xmlns="http://www.w3.org/2000/svg" viewBox="0 0 297 297" width="512" height="512"><g fill="#FFF"><path d="M228.61 196.111l-21.753-21.56v-52.408c0-67.469-48.925-117.17-51.008-119.253a9.872 9.872 0 0 0-13.959.001c-2.083 2.083-51.008 51.784-51.008 119.253v51.675L68.39 196.111a9.867 9.867 0 0 0-2.923 7.01v73.367a9.873 9.873 0 0 0 9.868 9.87c2.554 0 5.064-.99 6.95-2.859l24.675-24.456a9.866 9.866 0 0 0 2.923-7.01v-22.857a58.278 58.278 0 0 0 11.466 8.146c2.66 13.993 13.398 41.285 18.379 53.527a9.87 9.87 0 0 0 18.286 0c4.983-12.249 15.73-39.564 18.384-53.551a58.324 58.324 0 0 0 10.721-7.479v22.213a9.867 9.867 0 0 0 2.923 7.01l24.675 24.456a9.866 9.866 0 0 0 10.745 2.1 9.872 9.872 0 0 0 6.073-9.111V203.12a9.877 9.877 0 0 0-2.925-7.009zM90.143 247.919l-4.935 4.891v-45.574l4.935-4.891v45.574zm58.733 11.747c-4.727-13.016-8.316-24.278-8.396-27.547 0-4.668 3.764-8.467 8.39-8.467 4.626 0 8.39 3.799 8.39 8.448-.083 3.379-3.669 14.612-8.384 27.566zm-.006-55.754c-9.76 0-18.371 5.011-23.418 12.601-9.015-7.003-14.829-17.939-14.829-30.213v-64.156c0-44.668 25.554-81.681 38.247-97.308 12.697 15.633 38.247 52.643 38.247 97.308V186.3c0 12.274-5.814 23.212-14.828 30.215-5.047-7.591-13.658-12.603-23.419-12.603zm62.923 48.898l-4.936-4.891v-45.574l4.936 4.891v45.574z"/><path d="M148.87 80.195c-14.287 0-25.909 11.622-25.909 25.909s11.622 25.909 25.909 25.909c14.287 0 25.909-11.622 25.909-25.909s-11.622-25.909-25.909-25.909zm0 32.078a6.177 6.177 0 0 1-6.169-6.169 6.177 6.177 0 0 1 6.169-6.169 6.177 6.177 0 0 1 6.169 6.169 6.176 6.176 0 0 1-6.169 6.169z"/></g></svg>