<svg xmlns="http://www.w3.org/2000/svg" viewBox="0 0 64 64" width="512" height="512"><g fill="#FFF"><path d="M62.534 20.234a2.417 2.417 0 0 0-1.946-.994H23.514a1 1 0 1 0 0 2h37.074c.13 0 .25.062.33.171a.44.44 0 0 1 .063.388l-5.562 18A1.682 1.682 0 0 1 53.813 41H21.666c-.821 0-1.529-.568-1.722-1.38L12.606 8.696A2.188 2.188 0 0 0 10.47 7h-8.47a1 1 0 1 0 0 2h8.47c.088 0 .167.065.188.157L18 40.08A3.766 3.766 0 0 0 21.665 43h32.147a3.67 3.67 0 0 0 3.516-2.61l5.562-18a2.445 2.445 0 0 0-.357-2.156z"/><path d="M29.58 33a1 1 0 1 0 0 2H50.42a1 1 0 1 0 0-2H29.58zM53.505 28a1 1 0 0 0-1-1h-25.01a1 1 0 1 0 0 2h25.01a1 1 0 0 0 1-1zM30 47c-2.757 0-5 2.243-5 5s2.243 5 5 5 5-2.243 5-5-2.243-5-5-5zm0 8c-1.654 0-3-1.346-3-3s1.346-3 3-3 3 1.346 3 3-1.345 3-3 3zM46 47c-2.757 0-5 2.243-5 5s2.243 5 5 5 5-2.243 5-5-2.243-5-5-5zm0 8c-1.654 0-3-1.346-3-3s1.346-3 3-3 3 1.346 3 3-1.345 3-3 3z"/></g></svg>