<svg xmlns="http://www.w3.org/2000/svg" viewBox="0 0 512 512" width="512" height="512"><path d="M473.872 84.97H38.128C17.07 84.97 0 102.041 0 123.098v265.804c0 21.057 17.07 38.128 38.128 38.128h435.745c21.057 0 38.128-17.07 38.128-38.128V123.098C512 102.041 494.93 84.97 473.872 84.97zm5.447 303.932a5.447 5.447 0 0 1-5.447 5.447H38.128a5.447 5.447 0 0 1-5.447-5.447V123.098a5.447 5.447 0 0 1 5.447-5.447h435.745a5.447 5.447 0 0 1 5.447 5.447v265.804z" fill="#FFF"/><path d="M408.511 139.372c-27.03 0-49.021 21.991-49.021 49.021s21.991 49.021 49.021 49.021 49.021-21.991 49.021-49.021-21.991-49.021-49.021-49.021zm0 65.362c-9.01 0-16.34-7.33-16.34-16.34s7.33-16.34 16.34-16.34 16.34 7.33 16.34 16.34-7.33 16.34-16.34 16.34zM152.844 352.184c-.921-8.337-8.279-14.482-16.667-14.482H99.149c-9.638 0-17.325 8.342-16.238 18.199.921 8.337 8.279 14.482 16.667 14.482h37.027c9.637 0 17.326-8.342 16.239-18.199zM244.926 352.184c-.92-8.337-8.279-14.482-16.667-14.482H191.23c-9.638 0-17.325 8.342-16.238 18.199.92 8.337 8.279 14.482 16.667 14.482h37.028c9.637 0 17.326-8.342 16.239-18.199zM337.008 352.184c-.921-8.337-8.279-14.482-16.667-14.482h-37.028c-9.638 0-17.325 8.342-16.238 18.199.921 8.337 8.279 14.482 16.667 14.482h37.029c9.636 0 17.324-8.342 16.237-18.199zM429.089 352.184c-.921-8.337-8.279-14.482-16.667-14.482h-37.027c-9.636 0-17.325 8.342-16.238 18.199.92 8.337 8.279 14.482 16.667 14.482h37.027c9.637 0 17.325-8.342 16.238-18.199zM337.008 186.601c-.921-8.337-8.279-14.482-16.667-14.482h-91.652c-9.638 0-17.325 8.342-16.238 18.199.921 8.337 8.279 14.482 16.667 14.482h91.652c9.637 0 17.325-8.342 16.238-18.199z" fill="#FFF"/></svg>