<svg xmlns="http://www.w3.org/2000/svg" viewBox="0 0 425.2 425.2" width="512" height="512"><g fill="#FFF"><path d="M218.407 88.8h12c4.4 0 8-3.6 8-8s-3.6-8-8-8h-12c-4.4 0-8 3.6-8 8s3.6 8 8 8zM210.407 152.8c-22 0-40 18-40 40s18 40 40 40 40-18 40-40-18-40-40-40zm0 64c-13.2 0-24-10.8-24-24s10.8-24 24-24 24 10.8 24 24-10.8 24-24 24z"/><path d="M354.807 415.6l-12-65.6c-3.2-17.2-13.6-31.2-28.4-39.2l-22.8-12.4c7.2-27.2 11.2-55.6 11.2-84v-10.8c0-60.8-18.8-118.8-54.4-168.8l-18-24.8c-4.4-6.4-11.6-10-19.6-10-7.6 0-14.8 3.6-19.6 10l-18 24.8c-35.2 49.2-54.8 109.2-54.8 169.2v10.8c0 28.8 4 57.6 11.6 85.6l-19.2 10.4c-14.8 8-25.2 22-28.4 39.2l-12 65.2c-.4 3.2.8 6.8 4 8.4 1.2.8 2.8 1.2 4 1.2 2 0 3.6-.8 5.2-2l33.6-28.8c12.8-11.2 29.6-17.2 46.8-17.2h26.4v26c0 12 10 22 22 22s22-10 22-22v-26.4h4.4c1.2.4 2.4.8 3.6.8h18.8c17.2 0 34 6 46.8 17.2l33.6 28.8c1.6 1.2 3.2 2 5.2 2 1.2 0 2.8-.4 4-1.2 2.8-1.6 4.4-4.8 4-8.4zm-248-33.6l-16.4 14.4 7.6-43.2c2.4-12.4 9.6-22.4 20.4-28l16-8.8 9.6 32c1.6 5.2 4 9.6 7.2 13.6-16.4 2.4-32 9.2-44.4 20zm111.6 20.8c0 3.2-2.8 6-6 6s-6-2.8-6-6v-84c0-3.2 2.8-6 6-6s6 2.8 6 6v84zm20-42.4h-4v-41.6c0-12-10-22-22-22s-22 10-22 22v42h-8c-10.8 0-20-7.2-23.2-17.2l-12-40.4c-8.4-28.8-12.8-58.4-12.8-88.4V204c0-39.6 8.8-79.2 25.6-115.2h30.4c4.4 0 8-3.6 8-8s-3.6-8-8-8h-22c5.2-10 11.2-19.2 18-28.4l18-24.8c1.6-2 4-3.2 6.4-3.2 2.8 0 4.8 1.2 6.4 3.2l18 24.8c33.6 46.8 51.2 102 51.2 159.2v10.8c0 30-4.4 60-12.8 88.4l-12 40.4c-3.2 10.4-12.4 17.2-23.2 17.2zm80 22c-13.6-11.6-30.8-18.8-48.8-20.8 3.2-4 5.6-8.4 7.2-13.6l10-33.6 19.6 10.8c10.4 5.6 18 16 20.4 28l8 43.2-16.4-14z"/></g></svg>